<svg xmlns="http://www.w3.org/2000/svg" version="1.1" xmlns:xlink="http://www.w3.org/1999/xlink" xmlns:svgjs="http://svgjs.dev/svgjs" width="2000" height="1035" viewBox="0 0 2000 1035"><g transform="matrix(1,0,0,1,-1.2121212121212466,0.15888892015436795)"><svg viewBox="0 0 396 205" data-background-color="#ee3e38" preserveAspectRatio="xMidYMid meet" height="1035" width="2000" xmlns="http://www.w3.org/2000/svg" xmlns:xlink="http://www.w3.org/1999/xlink"><g id="tight-bounds" transform="matrix(1,0,0,1,0.2400000000000091,-0.031470752301117955)"><svg viewBox="0 0 395.52 205.06294150460224" height="205.06294150460224" width="395.52"><g><svg viewBox="0 0 395.52 205.06294150460224" height="205.06294150460224" width="395.52"><g transform="matrix(1,0,0,1,0,126.73712456704878)"><svg viewBox="0 0 395.52 78.32581693755347" height="78.32581693755347" width="395.52"><g id="textblocktransform"><svg viewBox="0 0 395.52 78.32581693755347" height="78.32581693755347" width="395.52" id="textblock"><g><svg viewBox="0 0 395.52 78.32581693755347" height="78.32581693755347" width="395.52"><g transform="matrix(1,0,0,1,0,0)"><svg width="395.52" viewBox="3.15 -35.8 233.78 46.3" height="78.32581693755347" data-palette-color="#ffffff"><path d="M24.15-9.25Q24.15-4.2 21.08-1.83 18 0.55 13.7 0.55L13.7 0.55Q11 0.55 8.6-0.43 6.2-1.4 4.67-3.6 3.15-5.8 3.15-9.25L3.15-9.25 3.15-25.35Q3.15-30.5 5.98-33.15 8.8-35.8 13.75-35.8L13.75-35.8Q18.7-35.8 21.43-33 24.15-30.2 24.15-25.3L24.15-25.3 24.15-9.25ZM21.4-25.8Q21.4-29.45 19.28-31.3 17.15-33.15 13.65-33.15L13.65-33.15Q10.15-33.15 8.05-31.3 5.95-29.45 5.95-25.8L5.95-25.8 5.95-9.3Q5.95-5.75 8.13-3.93 10.3-2.1 13.65-2.1L13.65-2.1Q17.05-2.1 19.23-3.88 21.4-5.65 21.4-9.35L21.4-9.35 21.4-25.8ZM59.8 0L59.8-17.15Q59.8-20.15 58.22-21.55 56.65-22.95 54.15-22.95L54.15-22.95Q52.2-22.95 49.8-22.1L49.8-22.1 47.95-21.2Q48.8-19.5 48.8-17.3L48.8-17.3 48.8 0 46.05 0 46.05-17.15Q46.05-20.2 44.47-21.58 42.9-22.95 40.35-22.95L40.35-22.95Q38.8-22.95 37.15-22.48 35.5-22 34.15-21.25L34.15-21.25 34.15 0 31.35 0 31.35-25.05 34.15-25.05 33.9-23.45Q37.2-25.4 40.65-25.4L40.65-25.4Q42.45-25.4 44.02-24.8 45.6-24.2 46.7-23.05L46.7-23.05Q47.4-23.45 48.8-24.15L48.8-24.15Q51.75-25.5 54.5-25.5L54.5-25.5Q58.05-25.5 60.3-23.33 62.55-21.15 62.55-17.3L62.55-17.3 62.55 0 59.8 0ZM85.3 0Q79.9 0.55 77.5 0.55L77.5 0.55Q72.25 0.55 69.15-1.4 66.05-3.35 66.05-8.45L66.05-8.45 66.05-12.6Q66.05-17.55 69.5-19.25L69.5-19.25Q71.15-20.1 73.7-20.1L73.7-20.1Q76.05-20.1 78.45-19.33 80.85-18.55 82.5-17.3L82.5-17.3Q82.5-20.05 80.9-21.68 79.3-23.3 74.75-23.3L74.75-23.3 74.9-25.45Q79.7-25.45 81.97-23.93 84.25-22.4 84.77-20.3 85.3-18.2 85.3-14.9L85.3-14.9 85.3 0ZM82.5-15.15Q80.45-16.1 78.12-16.8 75.8-17.5 73.85-17.5L73.85-17.5Q68.8-17.5 68.8-12.45L68.8-12.45 68.8-8.1Q68.8-4.85 71.05-3.38 73.3-1.9 77.45-1.9L77.45-1.9Q79.6-1.9 82.5-2.3L82.5-2.3 82.5-15.15ZM90.14 0L90.14-25.05 92.94-25.05 92.79-23.3Q95.14-25.5 98.94-25.5L98.94-25.5Q100.29-25.5 102.64-25.05L102.64-25.05 101.89-22.5Q100.29-23 98.54-23L98.54-23Q96.24-23 94.59-22.15 92.94-21.3 92.94-19.6L92.94-19.6 92.94 0 90.14 0ZM121.54 0L121.54-35.05 130.94-35.05Q136.59-35.05 139.56-31.95 142.54-28.85 142.54-23.7L142.54-23.7 142.54-10Q142.54 0 131.94 0L131.94 0 121.54 0ZM139.74-24.2Q139.74-27.05 138.51-28.93 137.29-30.8 135.39-31.65 133.49-32.5 131.44-32.5L131.44-32.5 124.34-32.5 124.34-2.5 131.14-2.5Q134.79-2.5 137.26-3.93 139.74-5.35 139.74-9.5L139.74-9.5 139.74-24.2ZM164.14 0L164.34-2.55Q163.14-1.05 161.31-0.25 159.49 0.55 157.64 0.55L157.64 0.55Q148.24 0.55 148.24-8.6L148.24-8.6 148.24-25.05 151.04-25.05 151.04-8.25Q151.04-5.05 152.81-3.5 154.59-1.95 157.64-1.95L157.64-1.95Q160.64-1.95 162.36-3.48 164.09-5 164.09-8.25L164.09-8.25 164.09-25.05 166.89-25.05 166.89 0 164.14 0ZM183.38 8.35Q186.68 7.1 186.68 3.15L186.68 3.15 186.68-3.05Q184.58 0.6 179.93 0.6L179.93 0.6Q175.53 0.6 173.08-1.8 170.63-4.2 170.63-8.8L170.63-8.8 170.63-16.25Q170.63-20.65 173.21-23.08 175.78-25.5 180.13-25.5L180.13-25.5Q184.78-25.5 186.88-22.15L186.88-22.15 186.68-25.05 189.48-25.05 189.48 3.2Q189.48 6.2 188.23 7.9 186.98 9.6 184.13 10.5L184.13 10.5 183.38 8.35ZM186.68-16.8Q186.68-19.9 184.68-21.43 182.68-22.95 179.93-22.95L179.93-22.95Q177.28-22.95 175.36-21.33 173.43-19.7 173.43-16L173.43-16 173.43-8.35Q173.43-5.2 175.21-3.6 176.98-2 179.93-2L179.93-2Q182.73-2 184.71-3.73 186.68-5.45 186.68-8.65L186.68-8.65 186.68-16.8ZM210.08 0L210.08-17.15Q210.08-20.2 208.31-21.58 206.53-22.95 203.73-22.95L203.73-22.95Q202.03-22.95 200.28-22.48 198.53-22 197.18-21.25L197.18-21.25 197.18 0 194.38 0 194.38-35 197.18-35 197.18-23.7Q198.43-24.55 200.18-25.03 201.93-25.5 203.83-25.5L203.83-25.5Q206.43-25.5 208.58-24.55L208.58-24.55Q210.58-23.65 211.71-21.85 212.83-20.05 212.83-17.3L212.83-17.3 212.83 0 210.08 0ZM236.93 0Q231.53 0.55 229.13 0.55L229.13 0.55Q223.88 0.55 220.78-1.4 217.68-3.35 217.68-8.45L217.68-8.45 217.68-12.6Q217.68-17.55 221.13-19.25L221.13-19.25Q222.78-20.1 225.33-20.1L225.33-20.1Q227.68-20.1 230.08-19.33 232.48-18.55 234.13-17.3L234.13-17.3Q234.13-20.05 232.53-21.68 230.93-23.3 226.38-23.3L226.38-23.3 226.53-25.45Q231.33-25.45 233.6-23.93 235.88-22.4 236.4-20.3 236.93-18.2 236.93-14.9L236.93-14.9 236.93 0ZM234.13-15.15Q232.08-16.1 229.75-16.8 227.43-17.5 225.48-17.5L225.48-17.5Q220.43-17.5 220.43-12.45L220.43-12.45 220.43-8.1Q220.43-4.85 222.68-3.38 224.93-1.9 229.08-1.9L229.08-1.9Q231.23-1.9 234.13-2.3L234.13-2.3 234.13-15.15Z" opacity="1" transform="matrix(1,0,0,1,0,0)" fill="#ffffff" class="wordmark-text-0" data-fill-palette-color="primary" id="text-0"></path></svg></g></svg></g></svg></g></svg></g><g transform="matrix(1,0,0,1,120.66586271651127,0)"><svg viewBox="0 0 154.18827456697744 108.2462790076989" height="108.2462790076989" width="154.18827456697744"><g><svg xmlns="http://www.w3.org/2000/svg" xmlns:xlink="http://www.w3.org/1999/xlink" version="1.1" x="8" y="0" viewBox="5 14.75 90.00099999999999 70.49999999999999" enable-background="new 0 0 100 100" xml:space="preserve" height="108.2462790076989" width="138.18827456697744" class="icon-icon-0" data-fill-palette-color="accent" id="icon-0"><g fill="#ffffff" data-fill-palette-color="accent"><path d="M91.795 14.75H8.205C6.434 14.75 5 16.184 5 17.954v64.091c0 1.77 1.434 3.205 3.205 3.205h83.591c1.77 0 3.205-1.434 3.205-3.205V17.954C95 16.184 93.566 14.75 91.795 14.75zM88.591 78.841H11.409V39.85h77.182V78.841zM88.591 33.44H11.409V21.159h77.182V33.44z" fill="#ffffff" data-fill-palette-color="accent"></path></g><g fill="#ffffff" data-fill-palette-color="accent"><circle cx="17.69" cy="27.435" r="3.0" fill="#ffffff" data-fill-palette-color="accent"></circle></g><g fill="#ffffff" data-fill-palette-color="accent"><circle cx="25.834" cy="27.435" r="3.0" fill="#ffffff" data-fill-palette-color="accent"></circle></g><g fill="#ffffff" data-fill-palette-color="accent"><circle cx="33.913" cy="27.435" r="3.0" fill="#ffffff" data-fill-palette-color="accent"></circle></g></svg></g></svg></g><g><rect width="120.66586271651127" height="7.063503003671652" y="100.18277600402726" x="274.85413728348874" fill="#ffffff" data-fill-palette-color="accent"></rect><rect width="120.66586271651127" height="7.063503003671652" y="100.18277600402726" x="0" fill="#ffffff" data-fill-palette-color="accent"></rect><rect width="120.66586271651127" height="7.063503003671652" y="86.05576999668395" x="274.85413728348874" fill="#ffffff" data-fill-palette-color="accent"></rect><rect width="120.66586271651127" height="7.063503003671652" y="86.05576999668395" x="0" fill="#ffffff" data-fill-palette-color="accent"></rect></g></svg></g><defs></defs></svg><rect width="395.52" height="205.06294150460224" fill="none" stroke="none" visibility="hidden"></rect></g></svg></g></svg>